<svg width="120" height="58" viewBox="0 0 120 58" fill="none" xmlns="http://www.w3.org/2000/svg">
    <g clip-path="url(#clip0_13884_5437)">
        <path d="M41.5964 52.6491V39.0709H49.5008V40.1179H42.6422V44.8519H48.5718V45.8989H42.6422V52.6491H41.5964Z"
            fill="#F8F8F8" />
        <path
            d="M58.6567 42.9499H59.7024V52.649H58.6567L58.6288 50.6608C58.3007 51.3347 57.8306 51.8749 57.2187 52.2843C56.6096 52.6936 55.8782 52.8997 55.0243 52.8997C54.3207 52.8997 53.6587 52.766 53.0441 52.4959C52.4266 52.2286 51.8843 51.8582 51.4115 51.3904C50.9387 50.9225 50.5715 50.3795 50.3073 49.7613C50.0431 49.1431 49.9096 48.4804 49.9096 47.7675C49.9096 47.0546 50.0403 46.403 50.3018 45.7876C50.5632 45.1721 50.9275 44.6319 51.392 44.1641C51.8565 43.6962 52.3961 43.3287 53.0107 43.0669C53.6254 42.8051 54.279 42.6743 54.9771 42.6743C55.8365 42.6743 56.5791 42.8831 57.2104 43.3008C57.839 43.7185 58.3312 44.2615 58.6872 44.9354L58.6594 42.9472L58.6567 42.9499ZM55.0132 51.8749C55.7558 51.8749 56.3927 51.6911 56.9267 51.3263C57.4607 50.9615 57.8668 50.4686 58.1532 49.8476C58.4369 49.2267 58.5788 48.5444 58.5788 47.8009C58.5788 47.0574 58.4342 46.3473 58.1477 45.7291C57.8612 45.1109 57.4496 44.6208 56.9184 44.256C56.3844 43.8912 55.7502 43.7074 55.016 43.7074C54.2817 43.7074 53.5864 43.8912 52.9773 44.2587C52.3682 44.6263 51.8815 45.122 51.52 45.743C51.1584 46.364 50.9776 47.049 50.9776 47.7981C50.9776 48.5472 51.164 49.2489 51.5339 49.8643C51.9065 50.4798 52.3988 50.9671 53.0107 51.3291C53.6254 51.6911 54.2929 51.8721 55.016 51.8721L55.0132 51.8749Z"
            fill="#F8F8F8" />
        <path
            d="M68.9334 50.3712L69.8623 50.8752C69.4229 51.4906 68.8666 51.9807 68.1908 52.3483C67.5149 52.7159 66.7835 52.9025 65.9964 52.9025C65.1064 52.9025 64.2942 52.6741 63.56 52.2146C62.8257 51.7552 62.2417 51.1397 61.8078 50.3684C61.3711 49.5942 61.1542 48.7393 61.1542 47.8037C61.1542 47.0936 61.2794 46.428 61.5325 45.8098C61.7856 45.1916 62.1304 44.6486 62.5726 44.1808C63.0149 43.713 63.5294 43.3454 64.119 43.0808C64.7059 42.8163 65.3316 42.6826 65.9992 42.6826C66.7862 42.6826 67.5177 42.8664 68.1936 43.234C68.8694 43.6016 69.4257 44.0972 69.8651 44.7182L68.9362 45.2139C68.569 44.7349 68.1212 44.3674 67.5984 44.114C67.0755 43.8578 66.5415 43.7297 65.9992 43.7297C65.2899 43.7297 64.6475 43.9162 64.0717 44.2866C63.496 44.6598 63.0427 45.1526 62.7061 45.7709C62.3696 46.3891 62.2027 47.0657 62.2027 47.8037C62.2027 48.5416 62.3752 49.2267 62.7173 49.8393C63.0594 50.4547 63.5183 50.9448 64.094 51.3096C64.6697 51.6744 65.3038 51.8582 66.0019 51.8582C66.5888 51.8582 67.1422 51.719 67.6596 51.4405C68.1769 51.162 68.6024 50.8056 68.9389 50.374L68.9334 50.3712Z"
            fill="#F8F8F8" />
        <path
            d="M76.084 52.9025C75.194 52.9025 74.3819 52.6741 73.6476 52.2146C72.9134 51.7552 72.3293 51.1397 71.8954 50.3684C71.4588 49.5942 71.2418 48.7393 71.2418 47.8037C71.2418 47.0936 71.367 46.428 71.6201 45.8098C71.8732 45.1916 72.218 44.6486 72.6603 44.1808C73.1025 43.713 73.617 43.3454 74.2066 43.0808C74.7935 42.8163 75.4193 42.6826 76.0868 42.6826C76.7904 42.6826 77.4412 42.8191 78.0392 43.0948C78.6372 43.3704 79.1517 43.7547 79.5856 44.2532C80.0195 44.7516 80.3504 45.3392 80.5841 46.0131C80.8177 46.6898 80.9234 47.4277 80.9039 48.2297H72.3404C72.41 48.9203 72.6185 49.5413 72.9662 50.0871C73.3111 50.6329 73.7561 51.0646 74.2984 51.3764C74.8408 51.6911 75.4387 51.8498 76.0895 51.8554C76.8071 51.8554 77.4524 51.6661 78.0253 51.2873C78.601 50.9086 79.0627 50.3907 79.4104 49.7307L80.4672 49.973C80.0807 50.8334 79.4938 51.5352 78.7151 52.0838C77.9335 52.6296 77.0602 52.9025 76.0895 52.9025H76.084ZM72.3043 47.3359H79.8415C79.8025 46.6703 79.6106 46.0577 79.2657 45.4979C78.9209 44.9382 78.4703 44.4899 77.9141 44.1557C77.3578 43.8188 76.7487 43.6517 76.084 43.6517C75.4193 43.6517 74.8102 43.816 74.2623 44.1474C73.7144 44.476 73.2666 44.9215 72.9217 45.4812C72.5768 46.041 72.371 46.6592 72.307 47.3386L72.3043 47.3359Z"
            fill="#F8F8F8" />
        <path
            d="M86.8558 52.9025C86.1382 52.9025 85.4457 52.7911 84.7726 52.5683C84.0996 52.3455 83.5155 52.0281 83.0149 51.6187C82.5143 51.2094 82.1638 50.7165 81.9636 50.14L82.9426 49.7725C83.0983 50.2124 83.3792 50.5884 83.7908 50.903C84.1997 51.2177 84.6753 51.4544 85.2148 51.6159C85.7544 51.7774 86.3023 51.8582 86.8558 51.8582C87.5149 51.8582 88.1296 51.744 88.7053 51.5185C89.281 51.2929 89.7455 50.9782 90.1015 50.5717C90.4575 50.1679 90.6327 49.6889 90.6327 49.132C90.6327 48.575 90.4492 48.1183 90.082 47.7591C89.7149 47.3999 89.2421 47.1159 88.6636 46.907C88.0851 46.6981 87.4844 46.5339 86.8558 46.4169C85.938 46.2554 85.1175 46.041 84.3944 45.7708C83.6712 45.5035 83.0983 45.122 82.6756 44.6319C82.2528 44.1418 82.0414 43.4818 82.0414 42.652C82.0414 41.8834 82.2667 41.2179 82.7145 40.6554C83.1623 40.0928 83.7519 39.6556 84.4834 39.3465C85.2148 39.0374 86.0047 38.8815 86.8558 38.8815C87.5455 38.8815 88.2242 38.9901 88.8889 39.2073C89.5536 39.4245 90.1404 39.7392 90.6522 40.1541C91.1612 40.569 91.5311 41.0731 91.7564 41.6662L90.7579 42.0254C90.6021 41.5799 90.3212 41.2012 89.9152 40.8893C89.5091 40.5802 89.0335 40.3435 88.4967 40.182C87.9572 40.0204 87.4093 39.9397 86.8558 39.9397C86.1911 39.9341 85.5708 40.0455 85.0007 40.2738C84.4277 40.5022 83.9661 40.8224 83.6156 41.229C83.2624 41.6356 83.0872 42.1118 83.0872 42.6548C83.0872 43.2813 83.2513 43.7659 83.5822 44.1084C83.9104 44.4509 84.361 44.7071 84.9284 44.8797C85.4957 45.0524 86.1382 45.2056 86.8558 45.3392C87.7069 45.4868 88.4995 45.7151 89.2338 46.0243C89.9652 46.3306 90.5576 46.7399 91.0054 47.2467C91.4532 47.7535 91.6785 48.3829 91.6785 49.132C91.6785 49.8811 91.4532 50.5605 91.0054 51.1258C90.5549 51.6911 89.968 52.1311 89.2365 52.4402C88.5051 52.7493 87.7124 52.9052 86.853 52.9052L86.8558 52.9025Z"
            fill="#F8F8F8" />
        <path
            d="M94.6516 41.1176C94.4709 41.1176 94.3179 41.0591 94.1927 40.9394C94.0676 40.8196 94.0036 40.6693 94.0036 40.4883C94.0036 40.3073 94.0676 40.1569 94.1927 40.0371C94.3179 39.9174 94.4736 39.8589 94.6516 39.8589C94.8296 39.8589 94.977 39.9174 95.1022 40.0371C95.2274 40.1569 95.2913 40.3073 95.2913 40.4883C95.2913 40.6693 95.2301 40.8196 95.1078 40.9394C94.9854 41.0591 94.8324 41.1176 94.6516 41.1176ZM94.1204 42.9499H95.1662V52.649H94.1204V42.9499Z"
            fill="#F8F8F8" />
        <path
            d="M105.969 42.9499H107.014V53.0556C107.014 53.6571 106.884 54.2252 106.622 54.7571C106.361 55.2917 106.008 55.7623 105.563 56.1717C105.118 56.581 104.611 56.9068 104.047 57.1408C103.482 57.3775 102.898 57.4944 102.297 57.4944C101.627 57.4944 100.976 57.3385 100.35 57.0238C99.7247 56.7091 99.1823 56.2914 98.729 55.7679C98.2756 55.2444 97.9586 54.6707 97.7833 54.0525L98.7512 53.607C98.868 54.1305 99.1072 54.6067 99.4688 55.0383C99.8303 55.4672 100.261 55.8097 100.762 56.0603C101.263 56.3109 101.774 56.439 102.297 56.439C102.762 56.439 103.215 56.3471 103.655 56.1661C104.094 55.9851 104.489 55.7373 104.837 55.4254C105.184 55.1107 105.462 54.7515 105.665 54.3449C105.868 53.9384 105.971 53.5067 105.971 53.0556V50.6803C105.629 51.3402 105.154 51.8749 104.547 52.2842C103.941 52.6936 103.232 52.8997 102.425 52.8997C101.755 52.8997 101.121 52.766 100.526 52.5015C99.9305 52.2369 99.4104 51.8693 98.9654 51.4015C98.5204 50.9337 98.1699 50.3907 97.9141 49.778C97.6582 49.1626 97.533 48.5054 97.533 47.7981C97.533 47.0908 97.661 46.4336 97.9141 45.8154C98.1699 45.1972 98.5204 44.6542 98.9654 44.1863C99.4104 43.7185 99.9305 43.3509 100.526 43.0864C101.121 42.8218 101.752 42.6882 102.425 42.6882C103.232 42.6882 103.941 42.8915 104.547 43.2952C105.154 43.699 105.629 44.2365 105.971 44.9104V42.9499H105.969ZM102.431 51.8749C103.154 51.8749 103.777 51.6883 104.294 51.3124C104.814 50.9365 105.215 50.4408 105.496 49.8198C105.777 49.1988 105.916 48.5277 105.916 47.8037C105.916 47.0796 105.774 46.3807 105.49 45.7625C105.207 45.1443 104.803 44.6486 104.28 44.2727C103.757 43.8967 103.14 43.7102 102.431 43.7102C101.722 43.7102 101.074 43.8939 100.492 44.2615C99.911 44.6291 99.4493 45.1248 99.1072 45.7458C98.7651 46.3668 98.5927 47.0518 98.5927 47.8009C98.5927 48.55 98.7679 49.2434 99.1156 49.856C99.4632 50.4714 99.9277 50.9615 100.512 51.3263C101.093 51.6911 101.733 51.8749 102.431 51.8749Z"
            fill="#F8F8F8" />
        <path
            d="M117.942 46.6842V52.649H116.896V46.8485C116.896 46.2721 116.757 45.7486 116.479 45.2779C116.201 44.8045 115.825 44.4314 115.355 44.1529C114.885 43.8744 114.36 43.7352 113.787 43.7352C113.214 43.7352 112.699 43.8744 112.226 44.1529C111.756 44.4314 111.378 44.8073 111.097 45.2779C110.816 45.7513 110.674 46.2749 110.674 46.8485V52.649H109.629V42.9499H110.674V44.4342C111.022 43.8967 111.484 43.4707 112.06 43.1532C112.635 42.8358 113.261 42.677 113.94 42.677C114.682 42.677 115.355 42.8553 115.959 43.2145C116.562 43.5737 117.044 44.0555 117.402 44.6653C117.761 45.2752 117.939 45.9463 117.939 46.6814L117.942 46.6842Z"
            fill="#F8F8F8" />
        <path d="M45.7349 9.29408H41.7216V28.4055H45.7349V9.29408Z" fill="#F8F8F8" />
        <path
            d="M93.77 4.82463C92.5463 3.53532 91.1083 2.51333 89.4952 1.78374C87.8821 1.05693 86.1299 0.686569 84.2859 0.686569C82.442 0.686569 80.7065 1.05693 79.0933 1.78374C77.483 2.51055 76.0451 3.53532 74.8185 4.82463C73.5948 6.11395 72.6213 7.62604 71.926 9.31914C71.2307 11.0122 70.8775 12.8529 70.8775 14.7855C70.8775 16.7181 71.2307 18.556 71.926 20.2519C72.6213 21.945 73.5976 23.4571 74.8185 24.7464C76.0423 26.0357 77.483 27.0577 79.0933 27.7873C80.7065 28.5141 82.4503 28.8844 84.2859 28.8844C86.1216 28.8844 87.8821 28.5141 89.4952 27.7873C91.1056 27.0605 92.5435 26.0357 93.77 24.7464C94.9938 23.4598 95.9672 21.945 96.6542 20.2519C97.3411 18.5588 97.6944 16.7181 97.6944 14.7855C97.6944 12.8529 97.3439 11.015 96.6542 9.31914C95.9616 7.62604 94.9938 6.11395 93.77 4.82463ZM92.8216 18.6172C92.3432 19.8091 91.6702 20.8729 90.8219 21.789C89.9736 22.6996 88.9835 23.4264 87.8738 23.9499C86.764 24.4707 85.5597 24.738 84.2832 24.738C83.0066 24.738 81.8023 24.4763 80.6953 23.9583C79.5856 23.4431 78.5927 22.7191 77.7472 21.8085C76.8989 20.8979 76.2259 19.8314 75.7503 18.6367C75.2719 17.4449 75.0299 16.15 75.0299 14.7855C75.0299 13.421 75.2719 12.1456 75.7503 10.9538C76.2286 9.7619 76.9017 8.69258 77.7472 7.78198C78.5927 6.87139 79.5856 6.14458 80.6981 5.62106C81.8078 5.10032 83.0149 4.83299 84.2859 4.83299C85.557 4.83299 86.7668 5.09475 87.8738 5.6127C88.9835 6.12787 89.9764 6.85189 90.8247 7.76249C91.6729 8.67309 92.346 9.74241 92.8216 10.9426C93.3 12.1428 93.5419 13.4321 93.5419 14.7855C93.5419 16.1389 93.3 17.4254 92.8216 18.6172Z"
            fill="#F8F8F8" />
        <path d="M45.7349 1.98146H41.7216V5.99143H45.7349V1.98146Z" fill="#F8F8F8" />
        <path
            d="M63.9188 12.3099C63.3319 11.4578 62.5782 10.7533 61.6799 10.213C60.9401 9.76747 60.0946 9.489 59.1601 9.37761C58.8569 9.34141 58.5454 9.3247 58.2256 9.3247C56.8794 9.3247 55.6028 9.5809 54.4291 10.0877C53.2582 10.5917 52.2097 11.3018 51.3169 12.1985C50.4214 13.0952 49.7121 14.1422 49.2059 15.3229C48.6998 16.5009 48.4439 17.7818 48.4439 19.1241C48.4439 19.4387 48.4578 19.745 48.4856 20.0486C48.5774 21.0566 48.8193 22.0146 49.2059 22.914C49.7121 24.0864 50.4214 25.1334 51.3169 26.0245C52.2125 26.9212 53.2582 27.6285 54.4291 28.1353C55.6028 28.6422 56.8794 28.8984 58.2256 28.8984C59.5717 28.8984 60.7009 28.6004 61.6799 28.01C62.5782 27.4698 63.3292 26.7625 63.9188 25.8992V28.4194H67.9154V0.630875L63.9188 4.62692V12.3099ZM62.9231 22.1093C62.4837 23.0004 61.8551 23.7188 61.0596 24.2423C60.2642 24.7631 59.3241 25.0304 58.2645 25.0304C57.2048 25.0304 56.2815 24.7631 55.4193 24.2395C54.5543 23.7132 53.8506 23.0004 53.3278 22.112C52.8021 21.2265 52.5351 20.2212 52.5351 19.1213C52.5351 18.0213 52.7938 17.0327 53.3083 16.1389C53.82 15.2478 54.5209 14.521 55.3831 13.9946C56.2453 13.4628 57.2132 13.1982 58.2617 13.1982C59.3102 13.1982 60.2614 13.4628 61.0485 13.9863C61.8384 14.5126 62.4642 15.2283 62.912 16.1194C63.357 17.016 63.585 18.0241 63.585 19.1241C63.585 20.224 63.3597 21.2182 62.9203 22.1093H62.9231Z"
            fill="#F8F8F8" />
        <path
            d="M112.34 12.7694C111.709 12.58 111.033 12.4018 110.299 12.2264C110.051 12.1679 109.818 12.1094 109.587 12.0481C108.002 11.6416 105.98 11.1932 104.812 9.94013C103.755 8.80397 103.819 7.10809 104.636 5.85776C105.654 4.30112 107.576 3.89733 109.326 3.89733C112.46 3.89733 114.084 5.25905 114.899 6.73773L117.655 3.98366C116.103 2.05386 113.475 0.655945 109.495 0.655945C102.837 0.655945 100.033 4.31504 100.033 8.09945C100.033 11.2601 101.285 13.3932 106.55 15.0835C107.323 15.3313 108.185 15.5708 109.142 15.8019C109.184 15.8131 109.225 15.8214 109.267 15.8353C111.089 16.2809 113.297 16.7654 114.713 18.0965C115.722 19.0433 116.009 20.5331 115.773 21.8614C115.297 24.5347 112.26 25.3479 109.921 25.3479C106.555 25.3479 104.394 24.1894 103.351 21.75L100.426 24.674C102.119 27.261 105.184 28.8872 109.804 28.8872C116.176 28.8872 120 25.579 120 20.8005C120 17.1497 118.582 14.6323 112.335 12.7777H112.34V12.7694Z"
            fill="#F8F8F8" />
        <path
            d="M7.85148 0.5L0 8.36121V31.942H23.5517L31.4031 24.0808V0.5H7.85148ZM21.043 10.5667C21.043 10.0515 21.4602 9.63381 21.9747 9.63381C22.4892 9.63381 22.9064 10.0515 22.9064 10.5667V13.1091C22.9064 13.6243 22.4892 14.042 21.9747 14.042C21.4602 14.042 21.043 13.6243 21.043 13.1091V10.5667ZM13.4001 18.4H15.0883C15.3136 18.4 15.4999 18.2163 15.4999 17.9879V10.4859C15.4999 10.0125 15.8837 9.63103 16.3538 9.63103C16.8238 9.63103 17.2076 10.0153 17.2076 10.4859V17.9879C17.2076 19.1575 16.2564 20.1126 15.0855 20.1126H13.3973C12.9245 20.1126 12.5435 19.7283 12.5435 19.2577C12.5435 18.7871 12.9273 18.4028 13.3973 18.4028L13.4001 18.4ZM8.6052 10.5667C8.6052 10.0515 9.02239 9.63381 9.53692 9.63381C10.0515 9.63381 10.4686 10.0515 10.4686 10.5667V13.1091C10.4686 13.6243 10.0515 14.042 9.53692 14.042C9.02239 14.042 8.6052 13.6243 8.6052 13.1091V10.5667ZM22.7868 22.2875C20.8344 23.9973 18.3285 24.9385 15.7308 24.9385C13.1331 24.9385 10.63 23.9973 8.67473 22.2875C8.31873 21.9756 8.28258 21.4354 8.59408 21.0789C8.90558 20.7225 9.44514 20.6863 9.80114 20.9982C11.4421 22.4351 13.5475 23.2259 15.7308 23.2259C17.9141 23.2259 20.0195 22.4351 21.6604 20.9982C22.0164 20.6863 22.556 20.7225 22.8675 21.0789C23.179 21.4354 23.1428 21.9756 22.7868 22.2875Z"
            fill="#00FFB9" />
    </g>
    <defs>
        <clipPath id="clip0_13884_5437">
            <rect width="120" height="57" fill="white" transform="translate(0 0.5)" />
        </clipPath>
    </defs>
</svg>