<svg width="14" height="14" viewBox="0 0 14 14" fill="none" xmlns="http://www.w3.org/2000/svg">
    <g clip-path="url(#clip0_13827_1956)">
        <path
            d="M3.50031 0L0 3.50031V14H10.4997L14 10.4997V0H3.50031ZM9.38128 4.48233C9.38128 4.25294 9.56727 4.06696 9.79665 4.06696C10.026 4.06696 10.212 4.25294 10.212 4.48233V5.61438C10.212 5.84377 10.026 6.02976 9.79665 6.02976C9.56727 6.02976 9.38128 5.84377 9.38128 5.61438V4.48233ZM5.97396 7.97024H6.7266C6.82703 7.97024 6.91011 7.88841 6.91011 7.78673V4.44637C6.91011 4.23559 7.08121 4.06572 7.29076 4.06572C7.50031 4.06572 7.67142 4.23683 7.67142 4.44637V7.78673C7.67142 8.3075 7.24736 8.7328 6.72536 8.7328H5.97272C5.76193 8.7328 5.59206 8.56169 5.59206 8.35214C5.59206 8.14259 5.76317 7.97148 5.97272 7.97148L5.97396 7.97024ZM3.83633 4.48233C3.83633 4.25294 4.02232 4.06696 4.2517 4.06696C4.48109 4.06696 4.66708 4.25294 4.66708 4.48233V5.61438C4.66708 5.84377 4.48109 6.02976 4.2517 6.02976C4.02232 6.02976 3.83633 5.84377 3.83633 5.61438V4.48233ZM10.1587 9.70118C9.28828 10.4625 8.17111 10.8816 7.01302 10.8816C5.85493 10.8816 4.739 10.4625 3.86733 9.70118C3.70862 9.56231 3.6925 9.32176 3.83137 9.16305C3.97024 9.00434 4.21079 8.98822 4.3695 9.12709C5.10105 9.76689 6.03968 10.119 7.01302 10.119C7.98636 10.119 8.92498 9.76689 9.65654 9.12709C9.81525 8.98822 10.0558 9.00434 10.1947 9.16305C10.3335 9.32176 10.3174 9.56231 10.1587 9.70118Z"
            fill="#00FFB9" />
    </g>
    <defs>
        <clipPath id="clip0_13827_1956">
            <rect width="14" height="14" fill="white" />
        </clipPath>
    </defs>
</svg>