<svg width="130" height="61" viewBox="0 0 130 61" fill="none" xmlns="http://www.w3.org/2000/svg">
    <g clip-path="url(#clip0_13872_2269)">
        <path d="M45.0627 55.8086V41.2776H53.6258V42.3981H46.1956V47.4643H52.6194V48.5848H46.1956V55.8086H45.0627Z"
            fill="#F8F8F8" />
        <path
            d="M63.5446 45.4289H64.6775V55.8087H63.5446L63.5144 53.6809C63.1589 54.4021 62.6497 54.9802 61.9868 55.4183C61.327 55.8564 60.5346 56.0769 59.6096 56.0769C58.8473 56.0769 58.1302 55.9339 57.4643 55.6448C56.7954 55.3587 56.2079 54.9623 55.6956 54.4617C55.1834 53.961 54.7857 53.3799 54.4995 52.7183C54.2132 52.0567 54.0686 51.3475 54.0686 50.5845C54.0686 49.8216 54.2102 49.1243 54.4934 48.4657C54.7767 47.8071 55.1714 47.2289 55.6745 46.7283C56.1777 46.2276 56.7623 45.8342 57.4281 45.5541C58.094 45.274 58.8021 45.1339 59.5583 45.1339C60.4894 45.1339 61.2938 45.3574 61.9778 45.8044C62.6587 46.2515 63.192 46.8326 63.5777 47.5538L63.5476 45.426L63.5446 45.4289ZM59.5975 54.9802C60.402 54.9802 61.092 54.7835 61.6705 54.3931C62.249 54.0027 62.6889 53.4753 62.9992 52.8107C63.3065 52.1461 63.4602 51.416 63.4602 50.6203C63.4602 49.8246 63.3035 49.0647 62.9932 48.4031C62.6828 47.7415 62.2369 47.217 61.6614 46.8266C61.0829 46.4362 60.396 46.2395 59.6005 46.2395C58.8051 46.2395 58.0518 46.4362 57.392 46.8296C56.7321 47.223 56.2048 47.7534 55.8131 48.418C55.4215 49.0826 55.2256 49.8157 55.2256 50.6173C55.2256 51.419 55.4275 52.17 55.8282 52.8286C56.232 53.4872 56.7653 54.0087 57.4281 54.3961C58.094 54.7835 58.8171 54.9772 59.6005 54.9772L59.5975 54.9802Z"
            fill="#F8F8F8" />
        <path
            d="M74.6777 53.3709L75.684 53.9103C75.208 54.5689 74.6054 55.0934 73.8732 55.4868C73.141 55.8802 72.3486 56.0798 71.4959 56.0798C70.5318 56.0798 69.6519 55.8355 68.8565 55.3438C68.0611 54.852 67.4283 54.1934 66.9583 53.3679C66.4853 52.5395 66.2502 51.6246 66.2502 50.6233C66.2502 49.8633 66.3858 49.1511 66.66 48.4895C66.9342 47.8279 67.3078 47.2468 67.7869 46.7461C68.266 46.2455 68.8234 45.8521 69.4621 45.569C70.0979 45.2859 70.7758 45.1428 71.4989 45.1428C72.3516 45.1428 73.144 45.3395 73.8762 45.7329C74.6084 46.1263 75.211 46.6567 75.687 47.3213L74.6807 47.8518C74.283 47.3392 73.7979 46.9458 73.2314 46.6746C72.665 46.4004 72.0865 46.2633 71.4989 46.2633C70.7306 46.2633 70.0346 46.463 69.4109 46.8594C68.7872 47.2587 68.2961 47.7862 67.9315 48.4478C67.5669 49.1094 67.3862 49.8335 67.3862 50.6233C67.3862 51.413 67.573 52.1461 67.9436 52.8017C68.3142 53.4603 68.8113 53.9848 69.435 54.3752C70.0587 54.7656 70.7457 54.9623 71.5019 54.9623C72.1377 54.9623 72.7373 54.8133 73.2977 54.5153C73.8581 54.2173 74.3191 53.8358 74.6837 53.3739L74.6777 53.3709Z"
            fill="#F8F8F8" />
        <path
            d="M82.4241 56.0798C81.46 56.0798 80.5802 55.8355 79.7847 55.3438C78.9893 54.852 78.3566 54.1934 77.8865 53.3679C77.4135 52.5395 77.1785 51.6246 77.1785 50.6233C77.1785 49.8633 77.3141 49.1511 77.5882 48.4895C77.8624 47.8279 78.236 47.2468 78.7151 46.7461C79.1942 46.2455 79.7516 45.8521 80.3904 45.569C81.0261 45.2859 81.704 45.1428 82.4272 45.1428C83.1895 45.1428 83.8945 45.2889 84.5423 45.5839C85.1901 45.8789 85.7475 46.2902 86.2175 46.8236C86.6876 47.357 87.0461 47.9859 87.2992 48.707C87.5523 49.4312 87.6668 50.2209 87.6457 51.0792H78.3686C78.4439 51.8183 78.6699 52.4829 79.0465 53.067C79.4202 53.6511 79.9022 54.113 80.4898 54.4467C81.0773 54.7835 81.7251 54.9534 82.4302 54.9593C83.2075 54.9593 83.9066 54.7567 84.5272 54.3514C85.1509 53.9461 85.6511 53.3918 86.0277 52.6855L87.1727 52.9448C86.7539 53.8656 86.1181 54.6166 85.2745 55.2037C84.4278 55.7878 83.4817 56.0798 82.4302 56.0798H82.4241ZM78.3294 50.1226H86.4947C86.4526 49.4104 86.2447 48.7547 85.871 48.1557C85.4974 47.5567 85.0093 47.0769 84.4067 46.7193C83.8041 46.3587 83.1443 46.1799 82.4241 46.1799C81.704 46.1799 81.0442 46.3557 80.4506 46.7104C79.8571 47.062 79.372 47.5388 78.9983 48.1378C78.6247 48.7368 78.4018 49.3984 78.3325 50.1256L78.3294 50.1226Z"
            fill="#F8F8F8" />
        <path
            d="M94.0936 56.0798C93.3163 56.0798 92.566 55.9606 91.8368 55.7222C91.1077 55.4838 90.475 55.1441 89.9326 54.706C89.3903 54.2679 89.0106 53.7404 88.7937 53.1236L89.8543 52.7302C90.023 53.201 90.3273 53.6034 90.7733 53.9401C91.2162 54.2769 91.7314 54.5302 92.3159 54.703C92.9005 54.8759 93.494 54.9623 94.0936 54.9623C94.8077 54.9623 95.4736 54.8401 96.0973 54.5987C96.721 54.3573 97.2241 54.0206 97.6098 53.5855C97.9955 53.1534 98.1853 52.6408 98.1853 52.0448C98.1853 51.4487 97.9864 50.96 97.5887 50.5756C97.191 50.1911 96.6788 49.8872 96.0521 49.6636C95.4254 49.4401 94.7746 49.2643 94.0936 49.1391C93.0993 48.9663 92.2105 48.7368 91.4271 48.4478C90.6437 48.1617 90.023 47.7534 89.565 47.2289C89.1071 46.7044 88.8781 45.9981 88.8781 45.11C88.8781 44.2875 89.1221 43.5753 89.6072 42.9733C90.0923 42.3713 90.7311 41.9034 91.5235 41.5726C92.3159 41.2418 93.1716 41.075 94.0936 41.075C94.8408 41.075 95.576 41.1912 96.2961 41.4236C97.0162 41.6561 97.652 41.9928 98.2064 42.4369C98.7578 42.8809 99.1585 43.4203 99.4026 44.0551L98.3209 44.4395C98.1522 43.9627 97.8478 43.5574 97.4079 43.2236C96.968 42.8928 96.4528 42.6395 95.8713 42.4667C95.2868 42.2938 94.6932 42.2074 94.0936 42.2074C93.3735 42.2014 92.7016 42.3206 92.0839 42.565C91.4632 42.8094 90.9631 43.1521 90.5834 43.5872C90.2008 44.0223 90.011 44.5319 90.011 45.113C90.011 45.7835 90.1887 46.3021 90.5473 46.6686C90.9028 47.0352 91.3909 47.3094 92.0056 47.4941C92.6202 47.6789 93.3163 47.8428 94.0936 47.9858C95.0156 48.1438 95.8743 48.3882 96.6697 48.7189C97.4622 49.0468 98.1039 49.4848 98.589 50.0272C99.0741 50.5696 99.3182 51.2431 99.3182 52.0448C99.3182 52.8464 99.0741 53.5736 98.589 54.1785C98.1009 54.7835 97.4652 55.2543 96.6728 55.5851C95.8803 55.9159 95.0216 56.0828 94.0906 56.0828L94.0936 56.0798Z"
            fill="#F8F8F8" />
        <path
            d="M102.539 43.468C102.343 43.468 102.178 43.4054 102.042 43.2773C101.906 43.1491 101.837 42.9882 101.837 42.7945C101.837 42.6008 101.906 42.4398 102.042 42.3117C102.178 42.1836 102.346 42.121 102.539 42.121C102.732 42.121 102.892 42.1836 103.027 42.3117C103.163 42.4398 103.232 42.6008 103.232 42.7945C103.232 42.9882 103.166 43.1491 103.033 43.2773C102.901 43.4054 102.735 43.468 102.539 43.468ZM101.964 45.4289H103.097V55.8086H101.964V45.4289Z"
            fill="#F8F8F8" />
        <path
            d="M114.799 45.4289H115.932V56.2438C115.932 56.8875 115.79 57.4954 115.507 58.0646C115.224 58.6368 114.841 59.1404 114.359 59.5785C113.877 60.0166 113.329 60.3653 112.717 60.6156C112.106 60.8689 111.473 60.9941 110.822 60.9941C110.096 60.9941 109.391 60.8272 108.713 60.4904C108.035 60.1537 107.447 59.7067 106.956 59.1464C106.465 58.5861 106.122 57.9722 105.932 57.3107L106.98 56.8338C107.107 57.3941 107.366 57.9037 107.758 58.3656C108.149 58.8246 108.616 59.1911 109.159 59.4593C109.701 59.7275 110.256 59.8646 110.822 59.8646C111.325 59.8646 111.816 59.7663 112.292 59.5726C112.768 59.3789 113.196 59.1136 113.573 58.7799C113.949 58.4431 114.251 58.0587 114.471 57.6236C114.691 57.1885 114.802 56.7266 114.802 56.2438V53.7017C114.432 54.408 113.916 54.9802 113.259 55.4183C112.603 55.8564 111.834 56.0769 110.961 56.0769C110.234 56.0769 109.547 55.9338 108.903 55.6507C108.258 55.3676 107.694 54.9742 107.212 54.4736C106.73 53.9729 106.351 53.3918 106.073 52.7362C105.796 52.0776 105.661 51.3743 105.661 50.6173C105.661 49.8604 105.799 49.1571 106.073 48.4955C106.351 47.8339 106.73 47.2528 107.212 46.7521C107.694 46.2514 108.258 45.8581 108.903 45.575C109.547 45.2918 110.231 45.1488 110.961 45.1488C111.834 45.1488 112.603 45.3664 113.259 45.7985C113.916 46.2306 114.432 46.8057 114.802 47.5269V45.4289H114.799ZM110.967 54.9802C111.75 54.9802 112.425 54.7805 112.985 54.3782C113.549 53.9759 113.983 53.4454 114.287 52.7809C114.591 52.1163 114.742 51.3981 114.742 50.6233C114.742 49.8484 114.588 49.1004 114.281 48.4389C113.974 47.7773 113.537 47.2468 112.97 46.8445C112.404 46.4422 111.735 46.2425 110.967 46.2425C110.198 46.2425 109.496 46.4392 108.867 46.8326C108.237 47.2259 107.737 47.7564 107.366 48.421C106.995 49.0855 106.809 49.8186 106.809 50.6203C106.809 51.4219 106.998 52.164 107.375 52.8196C107.752 53.4782 108.255 54.0027 108.888 54.3931C109.517 54.7835 110.21 54.9802 110.967 54.9802Z"
            fill="#F8F8F8" />
        <path
            d="M127.77 49.4252V55.8086H126.637V49.6011C126.637 48.9842 126.487 48.4239 126.185 47.9203C125.884 47.4136 125.477 47.0143 124.968 46.7163C124.459 46.4183 123.89 46.2693 123.269 46.2693C122.648 46.2693 122.091 46.4183 121.579 46.7163C121.069 47.0143 120.66 47.4166 120.355 47.9203C120.051 48.4269 119.897 48.9871 119.897 49.6011V55.8086H118.764V45.4289H119.897V47.0173C120.274 46.4421 120.774 45.9862 121.398 45.6464C122.021 45.3067 122.699 45.1368 123.435 45.1368C124.239 45.1368 124.968 45.3276 125.622 45.712C126.276 46.0964 126.797 46.612 127.186 47.2646C127.574 47.9173 127.767 48.6355 127.767 49.4222L127.77 49.4252Z"
            fill="#F8F8F8" />
        <path d="M49.5463 9.41125H45.1985V29.8638H49.5463V9.41125Z" fill="#F8F8F8" />
        <path
            d="M101.584 4.62816C100.258 3.24837 98.7007 2.15466 96.9531 1.37387C95.2056 0.596063 93.3074 0.199707 91.3097 0.199707C89.3121 0.199707 87.432 0.596063 85.6844 1.37387C83.9399 2.15168 82.3821 3.24837 81.0534 4.62816C79.7277 6.00795 78.6731 7.62616 77.9198 9.43807C77.1666 11.25 76.7839 13.2198 76.7839 15.288C76.7839 17.3562 77.1666 19.3231 77.9198 21.138C78.6731 22.9499 79.7307 24.5681 81.0534 25.9479C82.3791 27.3277 83.9399 28.4214 85.6844 29.2022C87.432 29.98 89.3211 30.3764 91.3097 30.3764C93.2983 30.3764 95.2056 29.98 96.9531 29.2022C98.6977 28.4244 100.255 27.3277 101.584 25.9479C102.91 24.5711 103.964 22.9499 104.709 21.138C105.453 19.3261 105.836 17.3562 105.836 15.288C105.836 13.2198 105.456 11.253 104.709 9.43807C103.958 7.62616 102.91 6.00795 101.584 4.62816ZM100.557 19.3887C100.038 20.6642 99.3093 21.8026 98.3903 22.783C97.4714 23.7575 96.3987 24.5353 95.1965 25.0956C93.9943 25.6529 92.6897 25.939 91.3067 25.939C89.9237 25.939 88.6191 25.6588 87.4199 25.1045C86.2177 24.5532 85.1421 23.7784 84.2261 22.8039C83.3071 21.8294 82.578 20.688 82.0628 19.4095C81.5445 18.134 81.2824 16.7483 81.2824 15.288C81.2824 13.8278 81.5445 12.4629 82.0628 11.1874C82.581 9.91191 83.3102 8.76754 84.2261 7.79304C85.1421 6.81855 86.2177 6.04073 87.4229 5.48047C88.6251 4.92319 89.9328 4.6371 91.3097 4.6371C92.6867 4.6371 93.9974 4.91723 95.1965 5.47153C96.3987 6.02285 97.4744 6.79768 98.3934 7.77218C99.3123 8.74668 100.041 9.89105 100.557 11.1755C101.075 12.4599 101.337 13.8397 101.337 15.288C101.337 16.7364 101.075 18.1132 100.557 19.3887Z"
            fill="#F8F8F8" />
        <path d="M49.5463 1.58545H45.1985V5.87682H49.5463V1.58545Z" fill="#F8F8F8" />
        <path
            d="M69.2454 12.6386C68.6097 11.7267 67.7932 10.9727 66.82 10.3946C66.0185 9.91778 65.1025 9.61976 64.0901 9.50056C63.7617 9.46182 63.4243 9.44394 63.0778 9.44394C61.6195 9.44394 60.2365 9.71811 58.965 10.2605C57.6965 10.7999 56.5606 11.5598 55.5934 12.5194C54.6232 13.479 53.8549 14.5995 53.3065 15.8631C52.7582 17.1237 52.481 18.4945 52.481 19.931C52.481 20.2677 52.496 20.5955 52.5262 20.9204C52.6256 21.9992 52.8877 23.0243 53.3065 23.9869C53.8549 25.2415 54.6232 26.3621 55.5934 27.3157C56.5636 28.2753 57.6965 29.0322 58.965 29.5746C60.2365 30.117 61.6195 30.3912 63.0778 30.3912C64.5361 30.3912 65.7594 30.0723 66.82 29.4405C67.7932 28.8624 68.6067 28.1054 69.2454 27.1816V29.8786H73.5752V0.140015L69.2454 4.41648V12.6386ZM68.1668 23.1256C67.6907 24.0793 67.0098 24.8482 66.148 25.4084C65.2863 25.9657 64.2679 26.2518 63.12 26.2518C61.972 26.2518 60.9717 25.9657 60.0376 25.4054C59.1006 24.8422 58.3383 24.0793 57.7718 23.1286C57.2024 22.181 56.9131 21.1051 56.9131 19.928C56.9131 18.7508 57.1933 17.6929 57.7507 16.7363C58.3051 15.7826 59.0644 15.0048 59.9985 14.4416C60.9325 13.8724 61.981 13.5893 63.1169 13.5893C64.2528 13.5893 65.2833 13.8724 66.136 14.4327C66.9917 14.9959 67.6696 15.7618 68.1547 16.7154C68.6368 17.675 68.8839 18.7538 68.8839 19.931C68.8839 21.1081 68.6398 22.172 68.1638 23.1256H68.1668Z"
            fill="#F8F8F8" />
        <path
            d="M121.702 13.1304C121.018 12.9277 120.286 12.737 119.49 12.5493C119.222 12.4867 118.969 12.4241 118.719 12.3585C117.002 11.9234 114.811 11.4436 113.546 10.1026C112.401 8.88669 112.47 7.0718 113.356 5.73373C114.459 4.06784 116.541 3.63573 118.436 3.63573C121.832 3.63573 123.591 5.093 124.474 6.67544L127.46 3.72811C125.779 1.66289 122.931 0.16687 118.62 0.16687C111.407 0.16687 108.369 4.08274 108.369 8.13272C108.369 11.5152 109.725 13.7979 115.429 15.6069C116.267 15.8721 117.201 16.1284 118.237 16.3757C118.282 16.3876 118.327 16.3966 118.373 16.4115C120.346 16.8883 122.739 17.4068 124.272 18.8313C125.366 19.8446 125.676 21.4389 125.42 22.8605C124.905 25.7214 121.615 26.5916 119.081 26.5916C115.435 26.5916 113.094 25.3518 111.964 22.7413L108.794 25.8704C110.629 28.6389 113.95 30.3793 118.954 30.3793C125.857 30.3793 130 26.8389 130 21.725C130 17.8181 128.463 15.1241 121.696 13.1393H121.702V13.1304Z"
            fill="#F8F8F8" />
        <path
            d="M8.50577 0L0 8.41287V33.6485H25.5143L34.0201 25.2356V0H8.50577ZM22.7966 10.7731C22.7966 10.2218 23.2485 9.77478 23.8059 9.77478C24.3633 9.77478 24.8153 10.2218 24.8153 10.7731V13.494C24.8153 14.0453 24.3633 14.4923 23.8059 14.4923C23.2485 14.4923 22.7966 14.0453 22.7966 13.494V10.7731ZM14.5168 19.1562H16.3457C16.5897 19.1562 16.7916 18.9595 16.7916 18.7151V10.6867C16.7916 10.1801 17.2074 9.7718 17.7166 9.7718C18.2258 9.7718 18.6416 10.1831 18.6416 10.6867V18.7151C18.6416 19.9668 17.6111 20.989 16.3427 20.989H14.5137C14.0015 20.989 13.5887 20.5777 13.5887 20.0741C13.5887 19.5704 14.0045 19.1592 14.5137 19.1592L14.5168 19.1562ZM9.3223 10.7731C9.3223 10.2218 9.77425 9.77478 10.3317 9.77478C10.8891 9.77478 11.341 10.2218 11.341 10.7731V13.494C11.341 14.0453 10.8891 14.4923 10.3317 14.4923C9.77425 14.4923 9.3223 14.0453 9.3223 13.494V10.7731ZM24.6857 23.3164C22.5706 25.1462 19.8558 26.1535 17.0417 26.1535C14.2275 26.1535 11.5158 25.1462 9.39763 23.3164C9.01196 22.9827 8.97279 22.4045 9.31025 22.0231C9.64771 21.6416 10.2322 21.6029 10.6179 21.9366C12.3956 23.4744 14.6764 24.3207 17.0417 24.3207C19.4069 24.3207 21.6878 23.4744 23.4654 21.9366C23.8511 21.6029 24.4356 21.6416 24.7731 22.0231C25.1106 22.4045 25.0714 22.9827 24.6857 23.3164Z"
            fill="#00FFB9" />
    </g>
    <defs>
        <clipPath id="clip0_13872_2269">
            <rect width="130" height="61" fill="white" />
        </clipPath>
    </defs>
</svg>