<svg width="64" height="64" viewBox="0 0 64 64" fill="none" xmlns="http://www.w3.org/2000/svg">
    <g clip-path="url(#clip0_13872_2484)">
        <path
            d="M63.6237 46.4466C63.122 45.9449 62.3067 45.9449 61.805 46.4466L46.8245 61.4271H2.57286V37.1457C2.57286 36.4349 1.99719 35.8593 1.28643 35.8593C0.575678 35.8593 0 36.4349 0 37.1457V62.7135C0 63.4243 0.575678 64 1.28643 64H47.3568C47.6977 64 48.0257 63.8649 48.2669 63.6237L63.6237 48.2669C64.1254 47.7652 64.1254 46.9499 63.6237 46.4482V46.4466Z"
            fill="#00FFB9" />
        <path
            d="M2.19658 17.5534L17.1755 2.57286H61.4271V26.8543C61.4271 27.565 62.0028 28.1407 62.7136 28.1407C63.4243 28.1407 64 27.565 64 26.8543V1.28643C64 0.575678 63.4243 0 62.7136 0H16.6432C16.3023 0 15.9743 0.135075 15.7331 0.376281L0.376281 15.7331C-0.125427 16.2348 -0.125427 17.0501 0.376281 17.5518C0.87799 18.0535 1.69327 18.0535 2.19497 17.5518L2.19658 17.5534Z"
            fill="#00FFB9" />
        <path
            d="M30.6862 38.593C32.8394 38.593 34.5922 36.8418 34.5922 34.6871V19.1888C34.5922 18.478 34.0165 17.9023 33.3057 17.9023C32.595 17.9023 32.0193 18.478 32.0193 19.1888V34.6871C32.0193 35.4219 31.4211 36.0201 30.6862 36.0201H27.1952C26.4844 36.0201 25.9088 36.5958 25.9088 37.3066C25.9088 38.0173 26.4844 38.593 27.1952 38.593H30.6862Z"
            fill="#00FFB9" />
        <path
            d="M20.6553 24.603V19.3496C20.6553 18.5504 20.0072 17.9023 19.208 17.9023C18.4088 17.9023 17.7608 18.5504 17.7608 19.3496V24.603C17.7608 25.4022 18.4088 26.0503 19.208 26.0503C20.0072 26.0503 20.6553 25.4022 20.6553 24.603Z"
            fill="#00FFB9" />
        <path
            d="M46.3839 24.603V19.3496C46.3839 18.5504 45.7359 17.9023 44.9367 17.9023C44.1375 17.9023 43.4894 18.5504 43.4894 19.3496V24.603C43.4894 25.4022 44.1375 26.0503 44.9367 26.0503C45.7359 26.0503 46.3839 25.4022 46.3839 24.603Z"
            fill="#00FFB9" />
        <path
            d="M17.6177 41.3926C17.1498 41.9281 17.2045 42.7401 17.7399 43.2081C21.6925 46.6621 26.7626 48.5644 32.0177 48.5644C37.2728 48.5644 42.3429 46.6621 46.2955 43.2081C46.831 42.7401 46.8857 41.9281 46.4177 41.3926C45.9498 40.8571 45.1377 40.8024 44.6022 41.2704C41.1192 44.3144 36.6489 45.99 32.0177 45.99C27.3866 45.99 22.9162 44.3144 19.4332 41.2704C18.8977 40.8024 18.0857 40.8571 17.6177 41.3926Z"
            fill="#00FFB9" />
    </g>
    <defs>
        <clipPath id="clip0_13872_2484">
            <rect width="64" height="64" fill="white" />
        </clipPath>
    </defs>
</svg>