<svg width="72" height="72" viewBox="0 0 72 72" fill="none" xmlns="http://www.w3.org/2000/svg">
    <g clip-path="url(#clip0_13872_2648)">
        <path
            d="M5.57998 21.389L20.8243 6.14626H58.8256C58.8682 6.14626 58.9074 6.12989 58.9369 6.10044L61.2393 3.79808C61.3391 3.69826 61.2687 3.52808 61.128 3.52808H20.2811C19.9342 3.52808 19.6003 3.66553 19.3549 3.91099L3.76689 19.5006C3.25962 20.0079 3.20889 20.8408 3.6998 21.3612C4.20871 21.9012 5.05798 21.911 5.57998 21.3906V21.389Z"
            fill="#EA8E8F" />
        <path
            d="M4.56709 40.0204C3.87164 40.0663 3.34473 40.675 3.34473 41.3721V61.3095C3.34473 61.4503 3.51491 61.5206 3.61473 61.4208L5.91709 59.1184C5.94654 59.089 5.96291 59.0481 5.96291 59.0072V41.3279C5.96291 40.5768 5.32964 39.973 4.56709 40.0221V40.0204Z"
            fill="#EA8E8F" />
        <path
            d="M67.1629 32.1642C67.8862 32.1642 68.472 31.5784 68.472 30.8551V5.37856L71.6154 2.2351C72.126 1.72456 72.126 0.894919 71.6154 0.384374C71.1049 -0.126172 70.2753 -0.126172 69.7647 0.384374L66.6213 3.52783H66.6L63.9818 6.14601H64.0031L38.5462 31.6029V31.5816L35.928 34.1998V34.2211L23.9449 46.2042C23.9449 46.2042 23.9367 46.1976 23.9335 46.1944L22.0696 48.0582C22.0696 48.0582 22.0778 48.0647 22.0811 48.068L5.96291 64.1862V64.1649L3.34473 66.7831V66.8044L0.382909 69.7662C-0.127636 70.2767 -0.127636 71.1064 0.382909 71.6169C0.638182 71.8722 0.973636 71.9998 1.30909 71.9998C1.64455 71.9998 1.97836 71.8722 2.23527 71.6169L5.19709 68.6551H51.5373C51.8842 68.6551 52.218 68.5176 52.4635 68.2722L68.0907 52.6449C68.6013 52.1344 68.6013 51.3047 68.0907 50.7942C67.5802 50.2836 66.7505 50.2836 66.24 50.7942L50.9956 66.0386H7.81527L24.246 49.6078C27.7298 51.7793 31.7716 52.9476 35.928 52.9476C41.2756 52.9476 46.4351 51.0118 50.4573 47.4969C51.0022 47.0207 51.0578 46.1944 50.5816 45.6495C50.1054 45.1046 49.2791 45.0489 48.7342 45.5251C45.1898 48.6227 40.6407 50.3278 35.928 50.3278C32.4704 50.3278 29.1027 49.4098 26.154 47.6982L31.0516 42.8006H34.5731C36.7642 42.8006 38.5478 41.0186 38.5478 38.8258V35.3044L47.6018 26.2504V28.5626C47.6018 29.3758 48.2613 30.0353 49.0745 30.0353C49.8878 30.0353 50.5473 29.3758 50.5473 28.5626V23.3049L65.8555 7.99674V30.8551C65.8555 31.5784 66.4413 32.1642 67.1645 32.1642H67.1629ZM35.928 38.8258C35.928 39.5736 35.3193 40.1824 34.5715 40.1824H33.6682L35.9264 37.9242V38.8275L35.928 38.8258Z"
            fill="#EA8E8F" />
        <path
            d="M37.1488 21.749C36.4533 21.7948 35.9264 22.4035 35.9264 23.1006V28.7281C35.9264 28.8688 36.0966 28.9391 36.1964 28.8393L38.5446 26.4911V23.0564C38.5446 22.3053 37.9113 21.7015 37.1488 21.7506V21.749Z"
            fill="#EA8E8F" />
        <path
            d="M24.3638 28.5643V23.2183C24.3638 22.4051 23.7043 21.7456 22.8911 21.7456C22.0778 21.7456 21.4183 22.4051 21.4183 23.2183V28.5643C21.4183 29.3776 22.0778 30.0371 22.8911 30.0371C23.7043 30.0371 24.3638 29.3776 24.3638 28.5643Z"
            fill="#EA8E8F" />
    </g>
    <defs>
        <clipPath id="clip0_13872_2648">
            <rect width="72" height="72" fill="white" />
        </clipPath>
    </defs>
</svg>