<svg width="120" height="32" viewBox="0 0 120 32" fill="none" xmlns="http://www.w3.org/2000/svg">
    <path d="M45.7349 9.29408H41.7216V28.4055H45.7349V9.29408Z" fill="#F8F8F8" />
    <path
        d="M93.77 4.82463C92.5463 3.53532 91.1083 2.51333 89.4952 1.78374C87.8821 1.05693 86.1299 0.686569 84.2859 0.686569C82.442 0.686569 80.7065 1.05693 79.0933 1.78374C77.483 2.51055 76.0451 3.53532 74.8185 4.82463C73.5948 6.11395 72.6213 7.62604 71.926 9.31914C71.2307 11.0122 70.8775 12.8529 70.8775 14.7855C70.8775 16.7181 71.2307 18.556 71.926 20.2519C72.6213 21.945 73.5976 23.4571 74.8185 24.7464C76.0423 26.0357 77.483 27.0577 79.0933 27.7873C80.7065 28.5141 82.4503 28.8844 84.2859 28.8844C86.1216 28.8844 87.8821 28.5141 89.4952 27.7873C91.1056 27.0605 92.5435 26.0357 93.77 24.7464C94.9938 23.4598 95.9672 21.945 96.6542 20.2519C97.3411 18.5588 97.6944 16.7181 97.6944 14.7855C97.6944 12.8529 97.3439 11.015 96.6542 9.31914C95.9616 7.62604 94.9938 6.11395 93.77 4.82463ZM92.8216 18.6172C92.3432 19.8091 91.6702 20.8729 90.8219 21.789C89.9736 22.6996 88.9835 23.4264 87.8738 23.9499C86.764 24.4707 85.5597 24.738 84.2832 24.738C83.0066 24.738 81.8023 24.4763 80.6953 23.9583C79.5856 23.4431 78.5927 22.7191 77.7472 21.8085C76.8989 20.8979 76.2259 19.8314 75.7503 18.6367C75.2719 17.4449 75.0299 16.15 75.0299 14.7855C75.0299 13.421 75.2719 12.1456 75.7503 10.9538C76.2286 9.7619 76.9017 8.69258 77.7472 7.78198C78.5927 6.87139 79.5856 6.14458 80.6981 5.62106C81.8078 5.10032 83.0149 4.83299 84.2859 4.83299C85.557 4.83299 86.7668 5.09475 87.8738 5.6127C88.9835 6.12787 89.9764 6.85189 90.8247 7.76249C91.6729 8.67309 92.346 9.74241 92.8216 10.9426C93.3 12.1428 93.5419 13.4321 93.5419 14.7855C93.5419 16.1389 93.3 17.4254 92.8216 18.6172Z"
        fill="#F8F8F8" />
    <path d="M45.7349 1.98146H41.7216V5.99143H45.7349V1.98146Z" fill="#F8F8F8" />
    <path
        d="M63.9188 12.3099C63.3319 11.4578 62.5782 10.7533 61.6799 10.213C60.9401 9.76747 60.0946 9.489 59.1601 9.37761C58.8569 9.34141 58.5454 9.3247 58.2256 9.3247C56.8794 9.3247 55.6028 9.5809 54.4291 10.0877C53.2582 10.5917 52.2097 11.3018 51.3169 12.1985C50.4214 13.0952 49.7121 14.1422 49.2059 15.3229C48.6998 16.5009 48.4439 17.7818 48.4439 19.1241C48.4439 19.4387 48.4578 19.745 48.4856 20.0486C48.5774 21.0566 48.8193 22.0146 49.2059 22.914C49.7121 24.0864 50.4214 25.1334 51.3169 26.0245C52.2125 26.9212 53.2582 27.6285 54.4291 28.1353C55.6028 28.6422 56.8794 28.8984 58.2256 28.8984C59.5717 28.8984 60.7009 28.6004 61.6799 28.01C62.5782 27.4698 63.3292 26.7625 63.9188 25.8992V28.4194H67.9154V0.630875L63.9188 4.62692V12.3099ZM62.9231 22.1093C62.4837 23.0004 61.8551 23.7188 61.0596 24.2423C60.2642 24.7631 59.3241 25.0304 58.2645 25.0304C57.2048 25.0304 56.2815 24.7631 55.4193 24.2395C54.5543 23.7132 53.8506 23.0004 53.3278 22.112C52.8021 21.2265 52.5351 20.2212 52.5351 19.1213C52.5351 18.0213 52.7938 17.0327 53.3083 16.1389C53.82 15.2478 54.5209 14.521 55.3831 13.9946C56.2453 13.4628 57.2132 13.1982 58.2617 13.1982C59.3102 13.1982 60.2614 13.4628 61.0485 13.9863C61.8384 14.5126 62.4642 15.2283 62.912 16.1194C63.357 17.016 63.585 18.0241 63.585 19.1241C63.585 20.224 63.3597 21.2182 62.9203 22.1093H62.9231Z"
        fill="#F8F8F8" />
    <path
        d="M112.34 12.7694C111.709 12.58 111.033 12.4018 110.299 12.2264C110.051 12.1679 109.818 12.1094 109.587 12.0481C108.002 11.6416 105.98 11.1932 104.812 9.94013C103.755 8.80397 103.819 7.10809 104.636 5.85776C105.654 4.30112 107.576 3.89733 109.326 3.89733C112.46 3.89733 114.084 5.25905 114.899 6.73773L117.655 3.98366C116.103 2.05386 113.475 0.655945 109.495 0.655945C102.837 0.655945 100.033 4.31504 100.033 8.09945C100.033 11.2601 101.285 13.3932 106.55 15.0835C107.323 15.3313 108.185 15.5708 109.142 15.8019C109.184 15.8131 109.225 15.8214 109.267 15.8353C111.089 16.2809 113.297 16.7654 114.713 18.0965C115.722 19.0433 116.009 20.5331 115.773 21.8614C115.297 24.5347 112.26 25.3479 109.921 25.3479C106.555 25.3479 104.394 24.1894 103.351 21.75L100.426 24.674C102.119 27.261 105.184 28.8872 109.804 28.8872C116.176 28.8872 120 25.579 120 20.8005C120 17.1497 118.582 14.6323 112.335 12.7777H112.34V12.7694Z"
        fill="#F8F8F8" />
    <path
        d="M7.85148 0.5L0 8.36121V31.942H23.5517L31.4031 24.0808V0.5H7.85148ZM21.043 10.5667C21.043 10.0515 21.4602 9.63381 21.9747 9.63381C22.4892 9.63381 22.9064 10.0515 22.9064 10.5667V13.1091C22.9064 13.6243 22.4892 14.042 21.9747 14.042C21.4602 14.042 21.043 13.6243 21.043 13.1091V10.5667ZM13.4001 18.4H15.0883C15.3136 18.4 15.4999 18.2163 15.4999 17.9879V10.4859C15.4999 10.0125 15.8837 9.63103 16.3538 9.63103C16.8238 9.63103 17.2076 10.0153 17.2076 10.4859V17.9879C17.2076 19.1575 16.2564 20.1126 15.0855 20.1126H13.3973C12.9245 20.1126 12.5435 19.7283 12.5435 19.2577C12.5435 18.7871 12.9273 18.4028 13.3973 18.4028L13.4001 18.4ZM8.6052 10.5667C8.6052 10.0515 9.02239 9.63381 9.53692 9.63381C10.0515 9.63381 10.4686 10.0515 10.4686 10.5667V13.1091C10.4686 13.6243 10.0515 14.042 9.53692 14.042C9.02239 14.042 8.6052 13.6243 8.6052 13.1091V10.5667ZM22.7868 22.2875C20.8344 23.9973 18.3285 24.9385 15.7308 24.9385C13.1331 24.9385 10.63 23.9973 8.67473 22.2875C8.31873 21.9756 8.28258 21.4354 8.59408 21.0789C8.90558 20.7225 9.44514 20.6863 9.80114 20.9982C11.4421 22.4351 13.5475 23.2259 15.7308 23.2259C17.9141 23.2259 20.0195 22.4351 21.6604 20.9982C22.0164 20.6863 22.556 20.7225 22.8675 21.0789C23.179 21.4354 23.1428 21.9756 22.7868 22.2875Z"
        fill="#00FFB9" />
</svg>