<svg width="17" height="21" viewBox="0 0 17 21" fill="none" xmlns="http://www.w3.org/2000/svg">
<path d="M8.00015 20.5095C5.48348 18.3288 3.59631 16.2994 2.33865 14.4212C1.08098 12.5429 0.452148 10.8185 0.452148 9.24797C0.452148 6.94031 1.19857 5.07206 2.6914 3.64322C4.1844 2.21439 5.95398 1.49997 8.00015 1.49997C8.43098 1.49997 8.85598 1.53431 9.27515 1.60297C9.69431 1.67147 10.0994 1.77239 10.4904 1.90572L9.28865 3.13272C9.07715 3.08006 8.86815 3.04314 8.66165 3.02197C8.45532 3.00097 8.23482 2.99047 8.00015 2.99047C6.28481 2.99047 4.84798 3.57764 3.68965 4.75197C2.53131 5.92631 1.95215 7.42497 1.95215 9.24797C1.95215 10.457 2.47107 11.8656 3.5089 13.474C4.54673 15.0823 6.04381 16.7621 8.00015 18.5135C9.95648 16.7621 11.4536 15.0823 12.4914 13.474C13.5292 11.8656 14.0481 10.457 14.0481 9.24797C14.0481 8.97747 14.0318 8.71497 13.9991 8.46047C13.9665 8.20597 13.9206 7.95822 13.8616 7.71722L15.0886 6.49047C15.2386 6.91731 15.3527 7.35764 15.4309 7.81147C15.5091 8.26531 15.5481 8.74414 15.5481 9.24797C15.5481 10.8185 14.9193 12.5429 13.6616 14.4212C12.404 16.2994 10.5168 18.3288 8.00015 20.5095ZM13.1809 2.33472L7.4424 8.07297V9.55772H8.92715L14.6654 3.81922L13.1809 2.33472ZM15.3654 3.11922L15.9886 2.49622C16.1335 2.35122 16.2107 2.17397 16.2204 1.96447C16.2299 1.75481 16.1654 1.58072 16.0269 1.44222L15.5579 0.973223C15.4194 0.834723 15.2453 0.770223 15.0356 0.779723C14.8261 0.78939 14.6489 0.86664 14.5039 1.01147L13.8809 1.63472L15.3654 3.11922Z" fill="white"/>
</svg>
