<svg width="116" height="21" viewBox="0 0 116 21" fill="none" xmlns="http://www.w3.org/2000/svg">
<path d="M27.4771 4.49683L30.1889 10.1664L32.7681 4.55487L36.5259 4.5309C36.5562 4.54478 36.6534 4.64446 36.6534 4.65582V16.3709L36.5587 16.4656H33.153L33.0583 16.3709V10.8604L31.0419 15.0498C30.9435 15.1002 29.6172 15.1078 29.4292 15.0826C29.3422 15.0712 29.2627 15.0712 29.2071 14.9892L27.3194 10.9853V16.3697L27.2248 16.4643H23.819L23.7244 16.3697V4.59147L23.819 4.49683H27.4771Z" fill="#FAFAFA"/>
<path d="M102.552 4.65487C102.58 4.5577 102.738 4.50723 102.833 4.49461C103.532 4.39997 105.382 4.43278 106.117 4.49461C106.232 4.50471 106.349 4.49966 106.444 4.57916L109.016 10.1667L109.811 8.38997C109.83 8.34959 109.899 8.34076 109.909 8.31804C110.403 7.2543 110.881 5.90663 111.451 4.85172C111.527 4.71039 111.6 4.59934 111.727 4.4984H115.322L115.417 4.59304V16.4646H111.98L111.885 16.37V10.8594L109.961 15.0147C109.836 15.1611 108.406 15.0475 108.115 15.0652L106.148 10.9213V16.3687L106.053 16.4633H102.647L102.552 16.3687V4.65487Z" fill="#FAFAFA"/>
<path d="M53.0171 4.49687C53.0688 4.50822 53.1899 4.60917 53.2379 4.6546C53.4928 4.89561 53.8209 5.47607 54.0606 5.77135C55.3427 7.35372 56.6171 8.95502 57.9055 10.5424V4.65334C57.9055 4.64198 58.0519 4.49561 58.0632 4.49561H61.4374C61.4173 4.55744 61.5005 4.63189 61.5005 4.65334V16.3684L61.4059 16.4631H58.6311L53.8701 11.109V16.3684L53.7754 16.4631H50.4328L50.3381 16.3684V4.59151L50.4328 4.49687H53.0183H53.0171Z" fill="#FAFAFA"/>
<path d="M79.1881 4.49683C82.7882 4.77191 84.2923 9.05845 81.9894 11.8156C81.8733 11.9544 81.3736 12.3506 81.3661 12.4617L83.1213 16.3167L83.0355 16.4643H79.6297L78.1483 13.2516H76.7931L76.6984 13.3462V16.4643H73.1665V4.59147L73.2611 4.49683H79.1894H79.1881ZM78.7464 7.58333C78.2354 7.4622 77.2612 7.67419 76.6972 7.58333V10.102H78.8095C78.8285 10.102 79.0821 9.94932 79.1263 9.91525C79.6424 9.52281 79.6815 8.43509 79.2827 7.94549C79.2398 7.89249 78.7856 7.59217 78.7452 7.58333H78.7464Z" fill="#FAFAFA"/>
<path d="M46.9689 5.59305C50.9109 8.32876 50.0036 14.6456 45.4168 16.1788C40.9296 17.6779 36.4917 13.674 37.6021 9.06695C38.5926 4.95455 43.4975 3.18416 46.9689 5.59305ZM45.2023 8.74391C42.4981 6.19874 39.1062 10.7642 42.2495 12.6014C44.7669 14.0727 47.225 10.6481 45.2023 8.74391Z" fill="#FAFAFA"/>
<path d="M71.5891 4.49683V8.02372H66.5441V9.09504H71.5891V11.9292H66.5441V12.9361H71.4944L71.5891 13.0308V16.463H63.0122V4.59147L63.1068 4.49683H71.5891Z" fill="#FAFAFA"/>
<path d="M93.2829 10.9525C93.4343 12.5588 95.2047 13.5393 96.6003 12.5967C96.8906 12.3999 97.5076 11.5279 97.5076 11.2049V4.59147L97.6023 4.49683H100.976V11.8976C100.976 12.5702 100.106 14.0642 99.6477 14.5867C96.6559 17.9975 90.9573 16.5892 89.8923 12.198C89.8671 12.0957 89.751 11.6755 89.751 11.6465V4.59273L89.8456 4.49809H93.1883L93.2829 4.59273V10.9538V10.9525Z" fill="#FAFAFA"/>
<path d="M5.08403 5.09987C5.58877 5.72196 6.29289 6.21409 6.7623 6.8589C6.7623 7.01032 5.39319 8.2318 5.18624 8.5132C2.73824 11.8496 7.61658 14.4717 9.44123 16.714C11.1523 18.8175 8.70935 21.5129 6.43043 20.1135C3.24676 16.7001 -0.757114 14.5234 0.123664 9.17315C0.567838 6.47403 2.17292 4.9762 4.07959 3.19067L4.27139 3.29919C4.32439 3.98438 4.65752 4.57367 5.08529 5.09987H5.08403Z" fill="#FAFAFA"/>
<path d="M9.25831 1.05954C10.577 2.04884 11.8174 3.89242 13.165 4.93598L13.9486 5.86723C14.4698 6.59406 14.9594 7.52153 15.1979 8.38464C15.7014 10.2131 15.5121 12.362 14.6073 14.0617C13.8199 15.5419 12.5606 16.6094 11.3934 17.783C11.0729 17.6858 11.223 17.412 11.1751 17.1987C11.17 17.1785 11.059 16.9527 11.0161 16.8441C10.5845 15.7678 9.37693 15.0826 8.71445 14.1602L8.77754 13.9709C9.22677 13.4422 9.95738 12.9299 10.3561 12.3847C11.3025 11.0888 11.0678 9.39286 10.0444 8.24205C8.74474 6.77955 7.13082 5.47353 5.81975 4.00851C4.56041 1.67533 7.07908 -0.578348 9.26084 1.05954H9.25831Z" fill="#FAFAFA"/>
<path d="M88.2381 4.56006V16.3685L88.1435 16.4632H84.7377L84.6431 16.3685V4.56006H88.2381Z" fill="#FAFAFA"/>
</svg>
