<svg width="34" height="36" viewBox="0 0 34 36" fill="none" xmlns="http://www.w3.org/2000/svg">
    <path
        d="M16.5992 16.6543C9.48929 20.5875 0.399414 23.2748 0.399414 23.2748L3.97663 29.4771C3.97663 29.4771 10.8508 22.9456 17.805 18.741"
        fill="#FAFAFA" />
    <path d="M17.7999 18.8955L32.6472 9.93018L31.7796 8.42188L16.5986 16.8088" fill="#FAFAFA" />
    <path
        d="M20.7727 35.0471C20.7727 35.0471 18.5525 25.8237 18.3967 17.6949L18.063 0.347168H16.3234L15.9897 17.6993C15.834 25.8282 13.6138 35.0515 13.6138 35.0515H20.7682L20.7727 35.0471Z"
        fill="#FAFAFA" />
    <path
        d="M16.5942 18.741C23.5485 22.9411 30.4226 29.4771 30.4226 29.4771L33.9998 23.2748C33.9998 23.2748 24.9099 20.5874 17.8 16.6587"
        fill="#FAFAFA" />
    <path d="M17.7921 16.8132L2.61566 8.42627L1.74805 9.93457L16.5953 18.8999" fill="#FAFAFA" />
</svg>