<svg width="192" height="32" viewBox="0 0 192 32" fill="none" xmlns="http://www.w3.org/2000/svg">
    <g clip-path="url(#clip0_13885_8589)">
        <path
            d="M0 0.371521H5.51675L17.2479 19.0715C18.463 21.0091 19.4927 22.7893 20.3319 24.407C20.1878 22.5571 20.1131 20.5034 20.1131 18.2459V0.371521H25.1536V31.6517H19.6343L7.90829 12.9956C6.71896 11.0863 5.69181 9.30871 4.82426 7.66008C4.96842 9.50996 5.04308 11.5637 5.04308 13.8212V31.6517H0V0.371521Z"
            fill="#F9F9F9" />
        <path
            d="M33.1417 30.501C31.4169 29.5025 30.0783 28.1222 29.1232 26.3575C28.1655 24.5953 27.6893 22.5958 27.6893 20.3718C27.6893 18.1479 28.1733 16.1561 29.1438 14.4068C30.1143 12.6576 31.4555 11.2824 33.1623 10.284C34.8716 9.2855 36.8101 8.78755 38.9854 8.78755C41.1607 8.78755 43.1043 9.2855 44.8291 10.284C46.5513 11.2824 47.9054 12.6653 48.8913 14.4275C49.8747 16.1922 50.369 18.1737 50.369 20.3693C50.369 22.5649 49.8747 24.5928 48.8913 26.3549C47.908 28.1196 46.5513 29.5 44.8291 30.4984C43.1043 31.4969 41.1581 31.9948 38.9854 31.9948C36.8127 31.9948 34.8639 31.4969 33.1391 30.4984L33.1417 30.501ZM42.3964 26.9225C43.3669 26.2853 44.1263 25.3951 44.6772 24.2522C45.2281 23.1092 45.5035 21.8167 45.5035 20.3693C45.5035 18.9219 45.2281 17.6344 44.6772 16.507C44.1263 15.3769 43.354 14.4971 42.3526 13.8599C41.3538 13.2226 40.2288 12.9053 38.9854 12.9053C37.742 12.9053 36.581 13.2226 35.595 13.8599C34.6116 14.4971 33.8471 15.3872 33.3142 16.5302C32.7761 17.6731 32.511 18.9528 32.511 20.3693C32.511 21.7857 32.7787 23.1479 33.3142 24.2728C33.8496 25.4029 34.6116 26.2827 35.595 26.9199C36.5784 27.5572 37.724 27.8745 39.0292 27.8745C40.3343 27.8745 41.4233 27.5572 42.3964 26.9199V26.9225Z"
            fill="#F9F9F9" />
        <path
            d="M56.8666 30.1759C55.5331 28.9633 54.8689 27.1831 54.8689 24.8404V13.1271H50.871V9.13585H54.8689V7.14666C54.8689 7.12344 54.8792 7.10022 54.8972 7.08216L59.4512 2.56196C59.5078 2.5052 59.6056 2.54648 59.6056 2.62646V9.13328H65.0812V13.1246H59.6056V24.4483C59.6056 25.5474 59.894 26.3936 60.4758 26.987C61.055 27.5804 61.8376 27.8771 62.821 27.8771C63.2277 27.8771 63.6241 27.841 64.018 27.7688C64.4067 27.6991 64.7646 27.6165 65.0838 27.5288V31.6517C64.2446 31.8839 63.3307 32 62.3447 32C60.0253 32 58.2026 31.3937 56.8692 30.1759H56.8666Z"
            fill="#F9F9F9" />
        <path
            d="M140.689 11.9971C139.994 11.0425 139.028 10.2685 137.8 9.67508C136.57 9.08168 135.244 8.78497 133.826 8.78497C131.653 8.78497 129.763 9.27776 128.154 10.2607C126.545 11.2463 125.31 12.6111 124.44 14.3604C123.57 16.1097 123.137 18.1117 123.137 20.3693C123.137 22.6268 123.564 24.6366 124.419 26.3988C125.271 28.1635 126.512 29.5387 128.134 30.5217C129.756 31.5046 131.681 31.9974 133.913 31.9974C135.422 31.9974 136.796 31.6878 138.042 31.0635C139.288 30.4443 140.171 29.6677 140.694 28.7414V31.6465H145.431V9.13328H140.694V11.9945H140.691L140.689 11.9971ZM140.21 24.3193C139.659 25.4493 138.892 26.3214 137.909 26.9457C136.925 27.5675 135.792 27.8797 134.518 27.8797C133.244 27.8797 132.073 27.5701 131.084 26.9457C130.101 26.3265 129.336 25.4416 128.803 24.2986C128.268 23.1557 128 21.8476 128 20.3718C128 18.8961 128.268 17.5932 128.803 16.4683C129.339 15.3382 130.101 14.4662 131.084 13.8418C132.067 13.2226 133.213 12.9078 134.518 12.9078C135.823 12.9078 136.92 13.2174 137.909 13.8418C138.892 14.4662 139.662 15.3382 140.21 16.4683C140.761 17.5983 141.036 18.8987 141.036 20.3718C141.036 21.845 140.761 23.1918 140.21 24.3193Z"
            fill="#F9F9F9" />
        <path
            d="M164.437 9.74732C163.227 9.08426 161.829 8.75143 160.243 8.75143C158.657 8.75143 157.224 9.12038 155.942 9.85568C154.66 10.591 153.614 11.6101 152.809 12.9104V9.09974H148.098V31.582H152.809V21.7057C152.809 19.8868 153.061 18.3259 153.566 17.0281C154.07 15.7278 154.783 14.7319 155.705 14.0379C156.626 13.3439 157.72 12.9981 158.99 12.9981C160.4 12.9981 161.525 13.4393 162.362 14.3191C163.199 15.2015 163.616 16.3625 163.616 17.8073V31.582H168.327V16.7676C168.327 15.1808 167.982 13.7773 167.289 12.5647C166.597 11.3521 165.647 10.413 164.437 9.7499V9.74732Z"
            fill="#F8F8F8" />
        <path
            d="M182.014 17.846L191.307 9.09715H184.738L175.748 17.6731V0L171.037 4.72144V31.5795H175.748V23.7826L178.729 21.0091L186.12 31.5795H192L182.014 17.846Z"
            fill="#F8F8F8" />
        <path
            d="M98.3027 0.232208H110.054C113.043 0.232208 115.409 0.931394 117.149 2.32719C118.89 3.72298 119.762 5.71475 119.762 8.30509C119.762 9.70088 119.407 10.9445 118.696 12.0358C117.986 13.1272 117.021 13.9347 115.803 14.4559C117.487 15.0957 118.807 16.0916 119.765 17.4435C120.722 18.7955 121.201 20.4622 121.201 22.4384C121.201 24.4147 120.782 26.0969 119.94 27.4772C119.098 28.8601 117.873 29.905 116.261 30.6171C114.65 31.3292 112.758 31.6852 110.58 31.6852H98.3053V0.232208H98.3027ZM113.342 11.7262C114.227 11.0141 114.67 9.98985 114.67 8.65082C114.67 7.31179 114.22 6.27978 113.321 5.55221C112.42 4.82465 111.131 4.46086 109.447 4.46086H103.354V12.7943H109.491C111.174 12.7943 112.456 12.4383 113.342 11.7262ZM114.472 25.9266C115.53 25.083 116.06 23.8471 116.06 22.2191C116.06 20.5912 115.522 19.3476 114.449 18.4884C113.375 17.6319 111.792 17.201 109.704 17.201H103.348V27.1908H109.704C111.823 27.1908 113.411 26.7703 114.472 25.9266Z"
            fill="#F8F8F8" />
        <path
            d="M78.8358 0.0644989H84.1466L96.3771 31.5175H90.935L81.4024 6.25913L71.9572 31.5175H66.6902L78.8358 0.0644989ZM73.7875 19.6082H84.283L79.917 24.0148H73.2238L73.7901 19.6082H73.7875Z"
            fill="#F8F8F8" />
        <path
            d="M78.8358 0.0644989H84.1466L96.3771 31.5175H90.935L81.4024 6.25913L71.9572 31.5175H66.6902L78.8358 0.0644989ZM73.7875 19.6082H84.283L79.917 24.0148H73.2238L73.7901 19.6082H73.7875Z"
            fill="#74FB5B" />
    </g>
    <defs>
        <clipPath id="clip0_13885_8589">
            <rect width="192" height="32" fill="white" />
        </clipPath>
    </defs>
</svg>